<mxfile host="app.diagrams.net" modified="2023-05-31T10:30:40.901Z" agent="Mozilla/5.0 (Windows NT 10.0; Win64; x64) AppleWebKit/537.36 (KHTML, like Gecko) Chrome/113.0.0.0 Safari/537.36" etag="z8XdqmEYyLs6rN26gpey" version="21.3.5" type="github">
  <diagram name="Page-1" id="vFoG2vwDNDZceMdTAJsb">
    <mxGraphModel dx="1050" dy="573" grid="1" gridSize="10" guides="1" tooltips="1" connect="1" arrows="1" fold="1" page="1" pageScale="1" pageWidth="850" pageHeight="1100" math="0" shadow="0">
      <root>
        <mxCell id="0" />
        <mxCell id="1" parent="0" />
        <mxCell id="XZyTgTBLMYQfceF50g7--60" value="" style="rounded=0;whiteSpace=wrap;html=1;fillColor=#f5f5f5;strokeColor=#666666;fontColor=#333333;" vertex="1" parent="1">
          <mxGeometry x="320" y="120" width="200" height="340" as="geometry" />
        </mxCell>
        <mxCell id="XZyTgTBLMYQfceF50g7--77" value="" style="rounded=0;whiteSpace=wrap;html=1;fillColor=#f5f5f5;strokeColor=#666666;fontColor=#333333;" vertex="1" parent="1">
          <mxGeometry x="560" y="120" width="200" height="340" as="geometry" />
        </mxCell>
        <mxCell id="XZyTgTBLMYQfceF50g7--12" value="" style="rounded=0;whiteSpace=wrap;html=1;fillColor=#f5f5f5;strokeColor=#666666;fontColor=#333333;" vertex="1" parent="1">
          <mxGeometry x="80" y="120" width="200" height="340" as="geometry" />
        </mxCell>
        <mxCell id="XZyTgTBLMYQfceF50g7--95" value="" style="rounded=0;whiteSpace=wrap;html=1;dashed=1;dashPattern=1 2;fillColor=#d0cee2;strokeColor=#56517e;" vertex="1" parent="1">
          <mxGeometry x="290" y="260" width="680" height="140" as="geometry" />
        </mxCell>
        <mxCell id="XZyTgTBLMYQfceF50g7--58" value="" style="rounded=0;whiteSpace=wrap;html=1;dashed=1;dashPattern=1 2;fillColor=#d0cee2;strokeColor=#56517e;" vertex="1" parent="1">
          <mxGeometry x="290" y="150" width="680" height="90" as="geometry" />
        </mxCell>
        <mxCell id="XZyTgTBLMYQfceF50g7--43" value="" style="rounded=0;whiteSpace=wrap;html=1;fillColor=#dae8fc;strokeColor=#6c8ebf;" vertex="1" parent="1">
          <mxGeometry x="105" y="160" width="150" height="280" as="geometry" />
        </mxCell>
        <mxCell id="UaKpD1dw4Sh4kHapiwSD-7" value="Physical Machine 1" style="text;html=1;strokeColor=none;fillColor=none;align=center;verticalAlign=middle;whiteSpace=wrap;rounded=0;" parent="1" vertex="1">
          <mxGeometry x="115" y="130" width="125" height="20" as="geometry" />
        </mxCell>
        <mxCell id="UaKpD1dw4Sh4kHapiwSD-8" value="" style="rounded=0;whiteSpace=wrap;html=1;" parent="1" vertex="1">
          <mxGeometry x="120" y="180" width="120" height="50" as="geometry" />
        </mxCell>
        <mxCell id="XZyTgTBLMYQfceF50g7--8" value="" style="rounded=0;whiteSpace=wrap;html=1;" vertex="1" parent="1">
          <mxGeometry x="80" y="520" width="200" height="74" as="geometry" />
        </mxCell>
        <mxCell id="XZyTgTBLMYQfceF50g7--13" value="VM1" style="text;html=1;strokeColor=none;fillColor=none;align=center;verticalAlign=middle;whiteSpace=wrap;rounded=0;" vertex="1" parent="1">
          <mxGeometry x="125" y="180" width="31" height="20" as="geometry" />
        </mxCell>
        <mxCell id="XZyTgTBLMYQfceF50g7--32" value="Workstation Node" style="text;html=1;strokeColor=none;fillColor=none;align=center;verticalAlign=middle;whiteSpace=wrap;rounded=0;" vertex="1" parent="1">
          <mxGeometry x="132.5" y="200" width="95" height="20" as="geometry" />
        </mxCell>
        <mxCell id="XZyTgTBLMYQfceF50g7--35" value="VM1" style="text;html=1;strokeColor=none;fillColor=none;align=center;verticalAlign=middle;whiteSpace=wrap;rounded=0;" vertex="1" parent="1">
          <mxGeometry x="125" y="250" width="31" height="20" as="geometry" />
        </mxCell>
        <mxCell id="XZyTgTBLMYQfceF50g7--46" value="" style="rounded=0;whiteSpace=wrap;html=1;" vertex="1" parent="1">
          <mxGeometry x="120" y="180" width="120" height="50" as="geometry" />
        </mxCell>
        <mxCell id="XZyTgTBLMYQfceF50g7--47" value="Workstation Node" style="text;html=1;strokeColor=none;fillColor=none;align=center;verticalAlign=middle;whiteSpace=wrap;rounded=0;" vertex="1" parent="1">
          <mxGeometry x="132.5" y="200" width="95" height="20" as="geometry" />
        </mxCell>
        <mxCell id="XZyTgTBLMYQfceF50g7--48" value="VM1" style="text;html=1;strokeColor=none;fillColor=none;align=center;verticalAlign=middle;whiteSpace=wrap;rounded=0;" vertex="1" parent="1">
          <mxGeometry x="125" y="180" width="31" height="20" as="geometry" />
        </mxCell>
        <mxCell id="XZyTgTBLMYQfceF50g7--50" value="" style="rounded=0;whiteSpace=wrap;html=1;" vertex="1" parent="1">
          <mxGeometry x="117.5" y="250" width="120" height="40" as="geometry" />
        </mxCell>
        <mxCell id="XZyTgTBLMYQfceF50g7--51" value="VM2" style="text;html=1;strokeColor=none;fillColor=none;align=center;verticalAlign=middle;whiteSpace=wrap;rounded=0;" vertex="1" parent="1">
          <mxGeometry x="121" y="250" width="39" height="20" as="geometry" />
        </mxCell>
        <mxCell id="XZyTgTBLMYQfceF50g7--52" value="vsphere" style="text;html=1;strokeColor=none;fillColor=none;align=center;verticalAlign=middle;whiteSpace=wrap;rounded=0;" vertex="1" parent="1">
          <mxGeometry x="112.5" y="410" width="130" height="30" as="geometry" />
        </mxCell>
        <mxCell id="XZyTgTBLMYQfceF50g7--104" style="rounded=0;orthogonalLoop=1;jettySize=auto;html=1;exitX=0.5;exitY=1;exitDx=0;exitDy=0;entryX=0.5;entryY=0;entryDx=0;entryDy=0;startArrow=none;startFill=0;endArrow=none;endFill=0;dashed=1;" edge="1" parent="1" source="XZyTgTBLMYQfceF50g7--55" target="XZyTgTBLMYQfceF50g7--100">
          <mxGeometry relative="1" as="geometry" />
        </mxCell>
        <mxCell id="XZyTgTBLMYQfceF50g7--55" value="" style="rounded=0;whiteSpace=wrap;html=1;" vertex="1" parent="1">
          <mxGeometry x="115" y="310" width="120" height="40" as="geometry" />
        </mxCell>
        <mxCell id="XZyTgTBLMYQfceF50g7--57" value="VM3" style="text;html=1;strokeColor=none;fillColor=none;align=center;verticalAlign=middle;whiteSpace=wrap;rounded=0;" vertex="1" parent="1">
          <mxGeometry x="115" y="330" width="39" height="20" as="geometry" />
        </mxCell>
        <mxCell id="XZyTgTBLMYQfceF50g7--61" value="" style="rounded=0;whiteSpace=wrap;html=1;fillColor=#dae8fc;strokeColor=#6c8ebf;" vertex="1" parent="1">
          <mxGeometry x="345" y="160" width="150" height="280" as="geometry" />
        </mxCell>
        <mxCell id="XZyTgTBLMYQfceF50g7--62" value="Physical Machine 2" style="text;html=1;strokeColor=none;fillColor=none;align=center;verticalAlign=middle;whiteSpace=wrap;rounded=0;" vertex="1" parent="1">
          <mxGeometry x="355" y="130" width="125" height="20" as="geometry" />
        </mxCell>
        <mxCell id="XZyTgTBLMYQfceF50g7--63" value="" style="rounded=0;whiteSpace=wrap;html=1;" vertex="1" parent="1">
          <mxGeometry x="360" y="180" width="120" height="50" as="geometry" />
        </mxCell>
        <mxCell id="XZyTgTBLMYQfceF50g7--64" value="VM1" style="text;html=1;strokeColor=none;fillColor=none;align=center;verticalAlign=middle;whiteSpace=wrap;rounded=0;" vertex="1" parent="1">
          <mxGeometry x="365" y="180" width="31" height="20" as="geometry" />
        </mxCell>
        <mxCell id="XZyTgTBLMYQfceF50g7--65" value="Workstation Node" style="text;html=1;strokeColor=none;fillColor=none;align=center;verticalAlign=middle;whiteSpace=wrap;rounded=0;" vertex="1" parent="1">
          <mxGeometry x="372.5" y="200" width="95" height="20" as="geometry" />
        </mxCell>
        <mxCell id="XZyTgTBLMYQfceF50g7--67" value="" style="rounded=0;whiteSpace=wrap;html=1;" vertex="1" parent="1">
          <mxGeometry x="360" y="180" width="120" height="50" as="geometry" />
        </mxCell>
        <mxCell id="XZyTgTBLMYQfceF50g7--68" value="Control Plane1" style="text;html=1;strokeColor=none;fillColor=none;align=center;verticalAlign=middle;whiteSpace=wrap;rounded=0;" vertex="1" parent="1">
          <mxGeometry x="373.5" y="205" width="95" height="20" as="geometry" />
        </mxCell>
        <mxCell id="XZyTgTBLMYQfceF50g7--69" value="VM1" style="text;html=1;strokeColor=none;fillColor=none;align=center;verticalAlign=middle;whiteSpace=wrap;rounded=0;" vertex="1" parent="1">
          <mxGeometry x="359" y="180" width="31" height="20" as="geometry" />
        </mxCell>
        <mxCell id="XZyTgTBLMYQfceF50g7--70" value="" style="rounded=0;whiteSpace=wrap;html=1;" vertex="1" parent="1">
          <mxGeometry x="357.5" y="264" width="120" height="40" as="geometry" />
        </mxCell>
        <mxCell id="XZyTgTBLMYQfceF50g7--71" value="VM2" style="text;html=1;strokeColor=none;fillColor=none;align=center;verticalAlign=middle;whiteSpace=wrap;rounded=0;" vertex="1" parent="1">
          <mxGeometry x="355" y="264" width="39" height="20" as="geometry" />
        </mxCell>
        <mxCell id="XZyTgTBLMYQfceF50g7--72" value="vsphere" style="text;html=1;strokeColor=none;fillColor=none;align=center;verticalAlign=middle;whiteSpace=wrap;rounded=0;" vertex="1" parent="1">
          <mxGeometry x="352.5" y="410" width="130" height="30" as="geometry" />
        </mxCell>
        <mxCell id="XZyTgTBLMYQfceF50g7--74" value="" style="rounded=0;whiteSpace=wrap;html=1;" vertex="1" parent="1">
          <mxGeometry x="357.5" y="310" width="120" height="40" as="geometry" />
        </mxCell>
        <mxCell id="XZyTgTBLMYQfceF50g7--75" value="Worker1" style="text;html=1;strokeColor=none;fillColor=none;align=center;verticalAlign=middle;whiteSpace=wrap;rounded=0;" vertex="1" parent="1">
          <mxGeometry x="411.75" y="325" width="57.5" height="20" as="geometry" />
        </mxCell>
        <mxCell id="XZyTgTBLMYQfceF50g7--76" value="VM3" style="text;html=1;strokeColor=none;fillColor=none;align=center;verticalAlign=middle;whiteSpace=wrap;rounded=0;" vertex="1" parent="1">
          <mxGeometry x="360" y="310" width="39" height="20" as="geometry" />
        </mxCell>
        <mxCell id="XZyTgTBLMYQfceF50g7--78" value="" style="rounded=0;whiteSpace=wrap;html=1;fillColor=#dae8fc;strokeColor=#6c8ebf;" vertex="1" parent="1">
          <mxGeometry x="585" y="160" width="150" height="280" as="geometry" />
        </mxCell>
        <mxCell id="XZyTgTBLMYQfceF50g7--79" value="Physical Machine 3" style="text;html=1;strokeColor=none;fillColor=none;align=center;verticalAlign=middle;whiteSpace=wrap;rounded=0;" vertex="1" parent="1">
          <mxGeometry x="595" y="130" width="125" height="20" as="geometry" />
        </mxCell>
        <mxCell id="XZyTgTBLMYQfceF50g7--80" value="" style="rounded=0;whiteSpace=wrap;html=1;" vertex="1" parent="1">
          <mxGeometry x="600" y="180" width="120" height="50" as="geometry" />
        </mxCell>
        <mxCell id="XZyTgTBLMYQfceF50g7--81" value="VM1" style="text;html=1;strokeColor=none;fillColor=none;align=center;verticalAlign=middle;whiteSpace=wrap;rounded=0;" vertex="1" parent="1">
          <mxGeometry x="605" y="180" width="31" height="20" as="geometry" />
        </mxCell>
        <mxCell id="XZyTgTBLMYQfceF50g7--82" value="Workstation Node" style="text;html=1;strokeColor=none;fillColor=none;align=center;verticalAlign=middle;whiteSpace=wrap;rounded=0;" vertex="1" parent="1">
          <mxGeometry x="612.5" y="200" width="95" height="20" as="geometry" />
        </mxCell>
        <mxCell id="XZyTgTBLMYQfceF50g7--84" value="" style="rounded=0;whiteSpace=wrap;html=1;" vertex="1" parent="1">
          <mxGeometry x="600" y="180" width="120" height="50" as="geometry" />
        </mxCell>
        <mxCell id="XZyTgTBLMYQfceF50g7--85" value="Control Plane2" style="text;html=1;strokeColor=none;fillColor=none;align=center;verticalAlign=middle;whiteSpace=wrap;rounded=0;" vertex="1" parent="1">
          <mxGeometry x="612.5" y="205" width="95" height="20" as="geometry" />
        </mxCell>
        <mxCell id="XZyTgTBLMYQfceF50g7--86" value="VM1" style="text;html=1;strokeColor=none;fillColor=none;align=center;verticalAlign=middle;whiteSpace=wrap;rounded=0;" vertex="1" parent="1">
          <mxGeometry x="605" y="180" width="31" height="20" as="geometry" />
        </mxCell>
        <mxCell id="XZyTgTBLMYQfceF50g7--89" value="vsphere" style="text;html=1;strokeColor=none;fillColor=none;align=center;verticalAlign=middle;whiteSpace=wrap;rounded=0;" vertex="1" parent="1">
          <mxGeometry x="592.5" y="410" width="130" height="30" as="geometry" />
        </mxCell>
        <mxCell id="XZyTgTBLMYQfceF50g7--94" value="Admin Cluster" style="text;html=1;strokeColor=none;fillColor=none;align=center;verticalAlign=middle;whiteSpace=wrap;rounded=0;" vertex="1" parent="1">
          <mxGeometry x="780" y="190" width="125" height="20" as="geometry" />
        </mxCell>
        <mxCell id="XZyTgTBLMYQfceF50g7--96" value="User Cluster1" style="text;html=1;strokeColor=none;fillColor=none;align=center;verticalAlign=middle;whiteSpace=wrap;rounded=0;" vertex="1" parent="1">
          <mxGeometry x="790" y="280" width="125" height="20" as="geometry" />
        </mxCell>
        <mxCell id="XZyTgTBLMYQfceF50g7--100" value="" style="rounded=0;whiteSpace=wrap;html=1;" vertex="1" parent="1">
          <mxGeometry x="115" y="370" width="120" height="40" as="geometry" />
        </mxCell>
        <mxCell id="XZyTgTBLMYQfceF50g7--105" value="" style="rounded=0;whiteSpace=wrap;html=1;" vertex="1" parent="1">
          <mxGeometry x="357.5" y="355" width="120" height="40" as="geometry" />
        </mxCell>
        <mxCell id="XZyTgTBLMYQfceF50g7--106" value="Worker1" style="text;html=1;strokeColor=none;fillColor=none;align=center;verticalAlign=middle;whiteSpace=wrap;rounded=0;" vertex="1" parent="1">
          <mxGeometry x="411.75" y="370" width="57.5" height="20" as="geometry" />
        </mxCell>
        <mxCell id="XZyTgTBLMYQfceF50g7--108" value="Control Plane1" style="text;html=1;strokeColor=none;fillColor=none;align=center;verticalAlign=middle;whiteSpace=wrap;rounded=0;" vertex="1" parent="1">
          <mxGeometry x="378" y="280" width="95" height="20" as="geometry" />
        </mxCell>
        <mxCell id="XZyTgTBLMYQfceF50g7--117" value="VM4" style="text;html=1;strokeColor=none;fillColor=none;align=center;verticalAlign=middle;whiteSpace=wrap;rounded=0;" vertex="1" parent="1">
          <mxGeometry x="361" y="355" width="39" height="20" as="geometry" />
        </mxCell>
        <mxCell id="XZyTgTBLMYQfceF50g7--118" value="" style="rounded=0;whiteSpace=wrap;html=1;" vertex="1" parent="1">
          <mxGeometry x="599" y="264" width="120" height="40" as="geometry" />
        </mxCell>
        <mxCell id="XZyTgTBLMYQfceF50g7--119" value="VM2" style="text;html=1;strokeColor=none;fillColor=none;align=center;verticalAlign=middle;whiteSpace=wrap;rounded=0;" vertex="1" parent="1">
          <mxGeometry x="596.5" y="264" width="39" height="20" as="geometry" />
        </mxCell>
        <mxCell id="XZyTgTBLMYQfceF50g7--120" value="" style="rounded=0;whiteSpace=wrap;html=1;" vertex="1" parent="1">
          <mxGeometry x="599" y="310" width="120" height="40" as="geometry" />
        </mxCell>
        <mxCell id="XZyTgTBLMYQfceF50g7--121" value="Worker1" style="text;html=1;strokeColor=none;fillColor=none;align=center;verticalAlign=middle;whiteSpace=wrap;rounded=0;" vertex="1" parent="1">
          <mxGeometry x="653.25" y="325" width="57.5" height="20" as="geometry" />
        </mxCell>
        <mxCell id="XZyTgTBLMYQfceF50g7--122" value="VM3" style="text;html=1;strokeColor=none;fillColor=none;align=center;verticalAlign=middle;whiteSpace=wrap;rounded=0;" vertex="1" parent="1">
          <mxGeometry x="601.5" y="310" width="39" height="20" as="geometry" />
        </mxCell>
        <mxCell id="XZyTgTBLMYQfceF50g7--123" value="" style="rounded=0;whiteSpace=wrap;html=1;" vertex="1" parent="1">
          <mxGeometry x="599" y="355" width="120" height="40" as="geometry" />
        </mxCell>
        <mxCell id="XZyTgTBLMYQfceF50g7--124" value="Worker1" style="text;html=1;strokeColor=none;fillColor=none;align=center;verticalAlign=middle;whiteSpace=wrap;rounded=0;" vertex="1" parent="1">
          <mxGeometry x="653.25" y="370" width="57.5" height="20" as="geometry" />
        </mxCell>
        <mxCell id="XZyTgTBLMYQfceF50g7--125" value="Control Plane1" style="text;html=1;strokeColor=none;fillColor=none;align=center;verticalAlign=middle;whiteSpace=wrap;rounded=0;" vertex="1" parent="1">
          <mxGeometry x="619.5" y="280" width="95" height="20" as="geometry" />
        </mxCell>
        <mxCell id="XZyTgTBLMYQfceF50g7--126" value="VM4" style="text;html=1;strokeColor=none;fillColor=none;align=center;verticalAlign=middle;whiteSpace=wrap;rounded=0;" vertex="1" parent="1">
          <mxGeometry x="602.5" y="355" width="39" height="20" as="geometry" />
        </mxCell>
      </root>
    </mxGraphModel>
  </diagram>
</mxfile>
